<?xml version="1.0" standalone="no"?><!DOCTYPE svg PUBLIC "-//W3C//DTD SVG 1.1//EN" "http://www.w3.org/Graphics/SVG/1.1/DTD/svg11.dtd"><svg t="1531814658125" class="icon" style="" viewBox="0 0 1024 1024" version="1.1" xmlns="http://www.w3.org/2000/svg" p-id="2782" xmlns:xlink="http://www.w3.org/1999/xlink" width="200" height="200"><defs><style type="text/css"></style></defs><path d="M602.951998 38.910054A125.126544 125.126544 0 0 0 512.025344 0c-34.558272 0-66.812659 13.823309-90.926654 38.910054L32.817304 443.011449c-40.036398 41.725914-34.916654 77.820109-28.260987 92.872157 4.710164 10.649068 23.960402 32.561572 69.833309 32.561572h61.027348v318.345682c0 76.79616 43.261837 137.055547 115.296636 137.055548h165.265336v-328.994751c0-35.326234 5.068547-61.436928 31.486426-61.436928h124.512174c30.923254 0 35.9918 22.219689 35.991801 61.436928v328.994751h165.265337c72.034798 0 122.720264-66.454277 122.720264-137.055548v-318.345682h59.849807c45.872906 0 58.877056-21.912504 63.587221-32.561572 6.655667-15.103245 11.775411-51.146243-28.260987-92.872157L602.951998 38.910054z m238.580071 473.064347v374.816459c0 35.326234-34.251087 83.861407-70.242888 83.861407h-103.572422v-275.80061c0-73.877906-22.936453-118.931653-94.971251-118.931653h-120.825959c-72.034798 0-92.360182 48.330383-92.360182 118.931653v275.80061H250.611215c-35.9918 0-58.569872-48.586371-58.569872-83.861407V511.974401H53.859452c2.20149-3.891005 16.127194-23.755612 22.424479-30.360082l385.516724-398.213689c11.570621-12.133793 34.353482-29.540923 50.224689-29.387331 15.871206-0.153592 40.855557 17.253537 52.477376 29.387331l383.315234 398.213689c6.348483 6.60447 25.752312 26.469077 27.953803 30.360082h-134.239688z" p-id="2783"></path></svg>