<?xml version="1.0" standalone="no"?><!DOCTYPE svg PUBLIC "-//W3C//DTD SVG 1.1//EN" "http://www.w3.org/Graphics/SVG/1.1/DTD/svg11.dtd"><svg t="1559738993802" class="icon" style="" viewBox="0 0 1133 1024" version="1.1" xmlns="http://www.w3.org/2000/svg" p-id="1224" xmlns:xlink="http://www.w3.org/1999/xlink" width="221.2890625" height="200"><defs><style type="text/css"></style></defs><path d="M419.86168 703.141849c0.722653 3.613267 2.16796 3.613267 3.613267 0l4.335921-15.898377h-11.562456l3.613268 15.898377zM522.478476 703.141849c0.722653 3.613267 2.16796 3.613267 3.613267 0l4.335921-15.898377h-11.562456l3.613268 15.898377zM471.170078 644.606916l-4.335921 15.175723h11.562456l-4.335921-15.175723c-0.722653-3.613267-2.16796-3.613267-2.890614 0z" fill="#666666" p-id="1225"></path><path d="M636.657728 551.384615c-26.738179-35.410021-61.425547-62.1482-99.726182-76.60127-18.788991 10.839802-40.468596 17.343684-62.870854 17.343684-23.124912 0-44.081863-6.503881-62.870854-17.343684-39.023289 14.45307-72.988003 41.191249-99.726182 76.60127-40.468596 53.476359-65.761468 125.741708-66.484122 205.233592 0 5.058574 1.445307 10.117149 4.335921 13.730417 2.890614 3.613267 15.898377 18.788991 50.585745 31.796754 34.687368 13.730416 91.776994 26.015526 183.553987 26.015525s144.530699-12.285109 176.327452-26.015525c31.796754-13.730416 41.913903-31.0741 44.081863-36.855329 1.445307-2.890614 1.445307-5.781228 1.445307-8.671842-3.613267-79.491884-28.183486-151.757234-68.652081-205.233592z m-35.410022 129.354976c0 3.613267-2.890614 6.503881-6.503881 6.503881h-32.519407l-16.621031 60.702894c-0.722653 3.613267-4.335921 6.503881-7.949188 6.503881h-26.738179c-3.613267 0-7.226535-2.890614-7.949189-6.503881l-16.62103-60.702894h-26.738179l-16.621031 60.702894c-0.722653 3.613267-4.335921 6.503881-7.949188 6.503881h-26.738179c-3.613267 0-7.226535-2.890614-7.949189-6.503881L383.006351 687.243472h-32.519407c-3.613267 0-6.503881-2.890614-6.503881-6.503881v-14.45307c0-3.613267 2.890614-6.503881 6.503881-6.503882H375.779817l-18.066338-65.761468c-0.722653-3.613267 1.445307-6.503881 5.058575-6.503881H383.006351c3.613267 0 7.226535 2.890614 7.949189 6.503881l17.343684 65.761468h26.015525l17.343684-65.761468c0.722653-3.613267 4.335921-6.503881 7.949189-6.503881h26.015525c3.613267 0 7.226535 2.890614 7.949189 6.503881l17.343684 65.761468h26.015526l17.343683-65.761468c0.722653-3.613267 4.335921-6.503881 7.949189-6.503881h20.234298c3.613267 0 5.781228 2.890614 5.058574 6.503881l-18.066337 65.761468h25.292872c3.613267 0 6.503881 2.890614 6.503881 6.503882v14.45307z" fill="#666666" p-id="1226"></path><path d="M409.744531 457.439661c18.788991 10.839802 40.468596 17.343684 62.870854 17.343684 23.124912 0 44.081863-6.503881 62.870854-17.343684 13.007763-7.949188 25.292872-18.066337 35.410021-29.628793 24.570219-28.90614 39.745942-67.206775 40.468595-109.843331 0-1.445307 0-2.890614-0.722653-5.058574-1.445307-2.890614-7.226535-12.285109-26.738179-19.511645-18.788991-7.226535-50.585745-13.730416-106.230064-13.730416-54.921665 0-89.609033 6.503881-110.565984 13.730416-20.956951 7.226535-28.90614 15.175723-30.351447 17.343684-2.16796 2.16796-2.890614 5.058574-2.890614 7.226535 0.722653 42.636556 15.898377 81.659845 40.468596 109.843331 10.839802 11.562456 22.402258 21.679605 35.410021 29.628793z" fill="#BF618C" p-id="1227"></path><path d="M699.528582 539.822159c-26.738179-35.410021-61.425547-62.1482-99.726183-76.60127-10.117149 5.781228-20.956951 10.117149-31.796753 13.730417 36.855328 15.175723 69.374735 41.191249 94.667607 74.433309 40.468596 53.476359 65.761468 125.741708 66.484122 205.233592 0 2.890614-0.722653 5.781228-1.445307 8.671842-2.16796 5.781228-12.285109 23.124912-44.081863 36.855329-2.16796 0.722653-4.335921 1.445307-6.503882 2.890614 18.066337-4.335921 31.796754-8.671842 43.35921-13.730417 31.796754-13.730416 41.913903-31.0741 44.081863-36.855328 1.445307-2.890614 1.445307-5.781228 1.445307-8.671842-0.722653-80.214538-26.015526-152.479887-66.484121-205.956246zM614.255469 280.389555c18.788991 7.226535 25.292872 16.62103 26.73818 19.511645 0.722653 1.445307 0.722653 2.890614 0.722653 5.058574-0.722653 42.636556-15.898377 80.937191-40.468596 109.843331-10.117149 11.562456-21.679605 21.679605-34.687367 29.628793-2.890614 2.16796-6.503881 3.613267-9.394496 5.058575 16.62103-2.16796 32.519407-7.949188 46.972477-16.621031 13.007763-7.949188 25.292872-18.066337 35.410022-29.628793 24.570219-28.90614 39.745942-67.206775 40.468595-109.843331 0-1.445307 0-2.890614-0.722653-5.058574-1.445307-2.890614-7.226535-12.285109-26.73818-19.511644-18.788991-7.226535-50.585745-13.730416-106.230063-13.730417-54.921665 0-89.609033 6.503881-110.565985 13.730417-4.335921 1.445307-7.949188 2.890614-11.562455 4.33592 20.234298-4.335921 47.695131-7.226535 84.550458-7.226534 54.921665 0.722653 86.718419 7.226535 105.50741 14.453069z" fill="#17BADE" p-id="1228"></path><path d="M987.867325 735.661256l-58.534933-114.901905c-3.613267-7.226535-12.285109-9.394495-18.78899-6.503882-7.226535 3.613267-9.394495 12.285109-6.503882 18.788991l58.534933 114.901906c3.613267 7.226535 12.285109 9.394495 18.788991 6.503881 7.226535-3.613267 10.117149-11.562456 6.503881-18.788991zM890.309104 640.270995c0-7.226535-5.058574-13.007763-12.28511-13.730416 6.503881-0.722653 12.285109-6.503881 12.28511-13.730417 0-7.949188-6.503881-13.730416-13.730417-13.730416h-118.515173c4.335921 8.671842 7.949188 18.066337 11.562456 27.460833v0.722653c3.613267 8.671842 6.503881 18.066337 8.671842 27.460833v0.722653c2.16796 8.671842 5.058574 18.066337 6.503882 27.460833v0.722654c1.445307 8.671842 3.613267 18.066337 4.335921 27.460832v0.722654c1.445307 8.671842 2.16796 18.066337 2.16796 27.460833v0.722653c0 5.058574 0.722653 9.394495 0.722654 14.45307 0 2.890614-0.722653 5.781228-1.445307 8.671842-0.722653 0.722653-1.445307 2.890614-2.167961 4.335921h87.441073c7.949188 0 13.730416-6.503881 13.730416-13.730416 0-7.226535-5.058574-13.007763-12.285109-13.730417 6.503881-0.722653 12.285109-6.503881 12.285109-13.730416 0-7.226535-5.058574-13.007763-12.285109-13.730417 6.503881-0.722653 12.285109-6.503881 12.285109-13.730416 0-7.226535-5.058574-13.007763-12.285109-13.730416 6.503881-0.722653 12.285109-6.503881 12.285109-13.730417 0-7.226535-5.058574-13.007763-12.285109-13.730416 7.949188-4.335921 13.007763-10.117149 13.007763-17.343684z" fill="#FFD95E" p-id="1229"></path></svg>